<svg width="19" height="20" viewBox="0 0 19 20" fill="none" xmlns="http://www.w3.org/2000/svg">
<path id="calendar - FontAwesome Copy" fill-rule="evenodd" clip-rule="evenodd" d="M1.42857 18.5715H4.64286V15.3572H1.42857V18.5715ZM5.35715 18.5715H8.92858V15.3572H5.35715V18.5715ZM1.42857 14.6429H4.64286V11.0714H1.42857V14.6429ZM5.35715 14.6429H8.92858V11.0714H5.35715V14.6429ZM1.42857 10.3572H4.64286V7.14287H1.42857V10.3572ZM9.64287 18.5715H13.2143V15.3572H9.64287V18.5715ZM5.35715 10.3572H8.92858V7.14287H5.35715V10.3572ZM13.9286 18.5715H17.1429V15.3572H13.9286V18.5715ZM9.64287 14.6429H13.2143V11.0714H9.64287V14.6429ZM5.71429 5.00001V1.78572C5.71429 1.59598 5.54688 1.42857 5.35715 1.42857H4.64286C4.45313 1.42857 4.28572 1.59598 4.28572 1.78572V5.00001C4.28572 5.18974 4.45313 5.35715 4.64286 5.35715H5.35715C5.54688 5.35715 5.71429 5.18974 5.71429 5.00001ZM13.9286 14.6429H17.1429V11.0714H13.9286V14.6429ZM9.64287 10.3572H13.2143V7.14287H9.64287V10.3572ZM13.9286 10.3572H17.1429V7.14287H13.9286V10.3572ZM14.2857 5.00001V1.78572C14.2857 1.59598 14.1183 1.42857 13.9286 1.42857H13.2143C13.0246 1.42857 12.8572 1.59598 12.8572 1.78572V5.00001C12.8572 5.18974 13.0246 5.35715 13.2143 5.35715H13.9286C14.1183 5.35715 14.2857 5.18974 14.2857 5.00001ZM18.5715 4.28572V18.5715C18.5715 19.3527 17.9241 20 17.1429 20H1.42857C0.647322 20 0 19.3527 0 18.5715V4.28572C0 3.50447 0.647322 2.85715 1.42857 2.85715H2.85715V1.78572C2.85715 0.803572 3.66072 0 4.64286 0H5.35715C6.33929 0 7.14287 0.803572 7.14287 1.78572V2.85715H11.4286V1.78572C11.4286 0.803572 12.2322 0 13.2143 0H13.9286C14.9107 0 15.7143 0.803572 15.7143 1.78572V2.85715H17.1429C17.9241 2.85715 18.5715 3.50447 18.5715 4.28572Z" fill="#057DB0"/>
</svg>
