<svg width="18" height="10" viewBox="0 0 18 10" fill="none" xmlns="http://www.w3.org/2000/svg">
<mask id="path-1-inside-1" fill="white">
<path fill-rule="evenodd" clip-rule="evenodd" d="M13.4871 6.83485C14.1997 6.83485 14.7655 7.36682 14.7655 8.03007C14.7655 8.69562 14.1997 9.23125 13.4871 9.23125C12.772 9.23125 12.2024 8.69562 12.2024 8.03007C12.2024 7.36682 12.772 6.83485 13.4871 6.83485ZM4.18664 6.83485C4.90193 6.83485 5.47139 7.36625 5.47139 8.03007C5.47139 8.69619 4.90193 9.23125 4.18664 9.23125C3.47155 9.23125 2.90189 8.69562 2.90189 8.03007C2.90189 7.36682 3.47155 6.83485 4.18664 6.83485ZM3.97575 2.14429H6.01486V4.06003H1.86627L3.97575 2.14429ZM8.08589 1.37554C8.09652 1.37515 8.10716 1.37515 8.1178 1.37554H10.5916C10.8174 1.37554 11.0007 1.54754 11.0007 1.75991V4.42038C11.0007 4.63275 10.8174 4.80476 10.5916 4.80476H8.1178C7.89177 4.80476 7.7087 4.63275 7.7087 4.42038V1.75991C7.70809 1.55869 7.87255 1.39129 8.08589 1.37554ZM5.31798 4.11745e-05C5.26132 -0.00072758 5.20425 0.00926623 5.15189 0.0302148C5.085 0.0550071 5.03018 0.0972886 4.98559 0.150333C3.59898 1.41436 2.21277 2.67665 0.824523 3.94606C0.768477 3.98488 0.725318 4.03658 0.696682 4.09616C0.696682 4.09808 0.690955 4.09424 0.690341 4.09616C0.688091 4.10115 0.686045 4.10903 0.684 4.11422C0.655977 4.17726 0.648409 4.24472 0.658432 4.31237V4.38444C0.651273 4.42557 0.651273 4.46939 0.658432 4.51052V6.2823H0.409091C0.3555 6.2823 0.305182 6.28711 0.255682 6.30633C0.206182 6.32555 0.159341 6.35495 0.1215 6.39051C0.0836591 6.42606 0.0523636 6.47007 0.0319091 6.51658C0.0114545 6.56309 0 6.61633 0 6.66668V8.03007C0 8.08042 0.0114545 8.13366 0.0319091 8.18017C0.0525682 8.22668 0.0836591 8.27069 0.1215 8.30624C0.159341 8.34199 0.206182 8.3712 0.255682 8.39042C0.305182 8.40964 0.3555 8.41444 0.409091 8.41444H2.1285C2.32118 9.31466 3.1725 10 4.18684 10C5.20098 10 6.0527 9.31427 6.24498 8.41444H11.4226C11.6153 9.31466 12.473 10 13.4873 10C14.5 10 15.353 9.31466 15.5455 8.41444H17.5909C17.6445 8.41444 17.7014 8.40964 17.7507 8.39042C17.8002 8.3712 17.8407 8.34199 17.8785 8.30624C17.9163 8.27069 17.9476 8.22668 17.9681 8.18017C17.9885 8.13366 18 8.08042 18 8.03007V6.66668C18 6.61652 17.9885 6.56309 17.9681 6.51658C17.9476 6.47007 17.9163 6.42606 17.8785 6.39051C17.8407 6.35495 17.8002 6.32574 17.7507 6.30633C17.7014 6.28711 17.6445 6.2823 17.5909 6.2823H17.1436V0.390568C17.1436 0.340215 17.1321 0.286979 17.1115 0.240469C17.091 0.19396 17.0599 0.155906 17.0221 0.120351C16.9842 0.0847964 16.9372 0.0553915 16.8879 0.0361726C16.8384 0.0169538 16.7879 0.00619121 16.7345 0.00619121H5.36932C5.35316 0.00407714 5.33455 0.00061774 5.31818 0.000233363L5.31798 4.11745e-05Z"/>
</mask>
<path d="M3.97575 2.14429V1.28029H3.64198L3.39489 1.50468L3.97575 2.14429ZM6.01486 2.14429H6.87886V1.28029H6.01486V2.14429ZM6.01486 4.06003V4.92403H6.87886V4.06003H6.01486ZM1.86627 4.06003L1.28541 3.42042L-0.370257 4.92403H1.86627V4.06003ZM8.1178 1.37554L8.08659 2.23897L8.10219 2.23954H8.1178V1.37554ZM7.7087 1.75991H8.57271L8.5727 1.75728L7.7087 1.75991ZM5.31798 4.11745e-05L5.90957 -0.629648L5.66511 -0.859329L5.3297 -0.863879L5.31798 4.11745e-05ZM5.15189 0.0302148L5.45217 0.840352L5.46254 0.836509L5.47281 0.832402L5.15189 0.0302148ZM4.98559 0.150333L5.56765 0.788846L5.61004 0.750204L5.64695 0.706298L4.98559 0.150333ZM0.824523 3.94606L1.3165 4.65631L1.36449 4.62307L1.40756 4.58368L0.824523 3.94606ZM0.696682 4.09616L-0.0820367 3.72187L-0.167318 3.8993V4.09616H0.696682ZM0.690341 4.09616L1.47816 4.4509L1.49841 4.40593L1.51341 4.35895L0.690341 4.09616ZM0.684 4.11422L1.47351 4.46519L1.48102 4.44828L1.48781 4.43107L0.684 4.11422ZM0.658432 4.31237H1.52243V4.24871L1.5131 4.18575L0.658432 4.31237ZM0.658432 4.38444L1.50963 4.53261L1.52243 4.45908V4.38444H0.658432ZM0.658432 4.51052H1.52243V4.43588L1.50963 4.36235L0.658432 4.51052ZM0.658432 6.2823V7.1463H1.52243V6.2823H0.658432ZM0.0319091 8.18017L-0.758989 8.528L-0.757699 8.5309L0.0319091 8.18017ZM0.1215 8.30624L0.714819 7.67817L0.713125 7.67658L0.1215 8.30624ZM2.1285 8.41444L2.97336 8.23361L2.82714 7.55044H2.1285V8.41444ZM6.24498 8.41444V7.55044H5.54609L5.40005 8.2339L6.24498 8.41444ZM11.4226 8.41444L12.2675 8.23361L12.1213 7.55044H11.4226V8.41444ZM15.5455 8.41444V7.55044H14.8467L14.7006 8.23379L15.5455 8.41444ZM17.7507 8.39042L17.4379 7.585L17.4368 7.58544L17.7507 8.39042ZM17.8785 8.30624L17.2869 7.67658L17.2852 7.67817L17.8785 8.30624ZM17.7507 6.30633L18.0661 5.50196L18.0645 5.50134L17.7507 6.30633ZM17.1436 6.2823H16.2796V7.1463H17.1436V6.2823ZM17.1115 0.240469L16.3206 0.588299L16.3218 0.591205L17.1115 0.240469ZM16.8879 0.0361726L17.2017 -0.768813L17.2006 -0.76925L16.8879 0.0361726ZM5.36932 0.00619121L5.25724 0.862891L5.31304 0.870191H5.36932V0.00619121ZM5.31818 0.000233363L4.72658 0.629922L4.96747 0.856234L5.29789 0.863995L5.31818 0.000233363ZM13.4871 7.69885C13.7768 7.69885 13.9015 7.89646 13.9015 8.03007H15.6295C15.6295 6.83719 14.6227 5.97085 13.4871 5.97085V7.69885ZM13.9015 8.03007C13.9015 8.17035 13.7721 8.36725 13.4871 8.36725V10.0952C14.6274 10.0952 15.6295 9.22089 15.6295 8.03007H13.9015ZM13.4871 8.36725C13.195 8.36725 13.0664 8.16599 13.0664 8.03007H11.3384C11.3384 9.22524 12.349 10.0952 13.4871 10.0952V8.36725ZM13.0664 8.03007C13.0664 7.9008 13.1903 7.69885 13.4871 7.69885V5.97085C12.3537 5.97085 11.3384 6.83285 11.3384 8.03007H13.0664ZM4.18664 7.69885C4.4838 7.69885 4.60739 7.9004 4.60739 8.03007H6.33539C6.33539 6.8321 5.32006 5.97085 4.18664 5.97085V7.69885ZM4.60739 8.03007C4.60739 8.1664 4.47914 8.36725 4.18664 8.36725V10.0952C5.32473 10.0952 6.33539 9.22599 6.33539 8.03007H4.60739ZM4.18664 8.36725C3.89453 8.36725 3.76589 8.16599 3.76589 8.03007H2.03789C2.03789 9.22524 3.04857 10.0952 4.18664 10.0952V8.36725ZM3.76589 8.03007C3.76589 7.9008 3.88987 7.69885 4.18664 7.69885V5.97085C3.05323 5.97085 2.03789 6.83285 2.03789 8.03007H3.76589ZM3.97575 3.00829H6.01486V1.28029H3.97575V3.00829ZM5.15086 2.14429V4.06003H6.87886V2.14429H5.15086ZM6.01486 3.19603H1.86627V4.92403H6.01486V3.19603ZM2.44713 4.69963L4.55661 2.7839L3.39489 1.50468L1.28541 3.42042L2.44713 4.69963ZM8.11709 2.23897C8.10693 2.23934 8.09675 2.23934 8.08659 2.23897L8.149 0.512099C8.11757 0.510963 8.08611 0.510963 8.05468 0.512099L8.11709 2.23897ZM8.1178 2.23954H10.5916V0.511535H8.1178V2.23954ZM10.5916 2.23954C10.392 2.23954 10.1367 2.07492 10.1367 1.75991H11.8647C11.8647 1.02017 11.2428 0.511535 10.5916 0.511535V2.23954ZM10.1367 1.75991V4.42038H11.8647V1.75991H10.1367ZM10.1367 4.42038C10.1367 4.10537 10.392 3.94076 10.5916 3.94076V5.66876C11.2428 5.66876 11.8647 5.16012 11.8647 4.42038H10.1367ZM10.5916 3.94076H8.1178V5.66876H10.5916V3.94076ZM8.1178 3.94076C8.31744 3.94076 8.5727 4.10565 8.5727 4.42038H6.8447C6.8447 5.15985 7.46611 5.66876 8.1178 5.66876V3.94076ZM8.5727 4.42038V1.75991H6.8447V4.42038H8.5727ZM8.5727 1.75728C8.57361 2.05468 8.34202 2.22297 8.14954 2.23719L8.02224 0.513883C7.40307 0.559621 6.84257 1.0627 6.84471 1.76255L8.5727 1.75728ZM5.3297 -0.863879C5.16561 -0.866106 4.99488 -0.837547 4.83096 -0.771973L5.47281 0.832402C5.41362 0.856079 5.35703 0.864651 5.30626 0.863962L5.3297 -0.863879ZM4.8516 -0.779923C4.62275 -0.695097 4.44912 -0.554198 4.32423 -0.405633L5.64695 0.706298C5.61124 0.748775 5.54725 0.805111 5.45217 0.840352L4.8516 -0.779923ZM4.40353 -0.48818C3.01738 0.775424 1.63038 2.03844 0.241485 3.30844L1.40756 4.58368C2.79517 3.31486 4.18058 2.05329 5.56765 0.788846L4.40353 -0.48818ZM0.332542 3.23581C0.149971 3.36228 0.00961265 3.53119 -0.0820367 3.72187L1.4754 4.47045C1.44102 4.54197 1.38698 4.60748 1.3165 4.65631L0.332542 3.23581ZM-0.167318 4.09616C-0.167318 3.9911 -0.147761 3.8416 -0.063469 3.68564C-0.0213827 3.60777 0.0327063 3.53633 0.0972847 3.47415C0.161422 3.4124 0.229718 3.36571 0.295827 3.33112C0.424272 3.2639 0.541919 3.24336 0.615723 3.23646C0.691198 3.2294 0.752672 3.23375 0.790158 3.23787C0.861477 3.24571 0.915501 3.26103 0.929163 3.26488C0.946319 3.26971 0.962842 3.2751 0.955953 3.27291C0.955266 3.27269 0.950475 3.27116 0.94446 3.26933C0.938306 3.26746 0.928136 3.26444 0.915489 3.26106C0.895355 3.25568 0.842959 3.2422 0.774469 3.2356C0.738512 3.23214 0.686843 3.22939 0.62498 3.23415C0.563737 3.23885 0.477868 3.25198 0.38141 3.28898C0.28165 3.32723 0.170345 3.39134 0.0707519 3.49387C-0.030018 3.59762 -0.095512 3.71682 -0.132723 3.83336L1.51341 4.35895C1.47627 4.47526 1.41089 4.59426 1.31027 4.69785C1.21083 4.80023 1.09971 4.86422 1.00017 4.90239C0.903926 4.9393 0.818303 4.95239 0.757328 4.95707C0.695734 4.9618 0.644358 4.95907 0.608712 4.95563C0.540845 4.94909 0.489148 4.93576 0.469745 4.93058C0.457464 4.9273 0.447667 4.92439 0.44189 4.92263C0.436251 4.92092 0.43184 4.91951 0.43153 4.91941C0.425395 4.91745 0.442662 4.92308 0.460512 4.92811C0.474866 4.93216 0.529531 4.94763 0.601397 4.95553C0.639156 4.95968 0.700879 4.96403 0.776576 4.95695C0.8506 4.95003 0.96844 4.92944 1.09704 4.86214C1.16323 4.82751 1.2316 4.78077 1.29579 4.71896C1.36043 4.65673 1.41458 4.58521 1.4567 4.50726C1.54108 4.35115 1.56068 4.20145 1.56068 4.09616H-0.167318ZM-0.0974771 3.74142C-0.104962 3.75804 -0.110843 3.77246 -0.115144 3.78346C-0.119499 3.7946 -0.123004 3.8042 -0.125586 3.81148C-0.130431 3.82513 -0.134072 3.83643 -0.135024 3.83938C-0.13534 3.84035 -0.135622 3.84123 -0.135744 3.84161C-0.135916 3.84214 -0.135905 3.84211 -0.135881 3.84203C-0.135844 3.84192 -0.135201 3.83993 -0.134274 3.83714C-0.132925 3.83308 -0.127737 3.8175 -0.119806 3.79738L1.48781 4.43107C1.4926 4.41892 1.49638 4.40856 1.49904 4.40104C1.50174 4.39343 1.5039 4.38703 1.50535 4.38269C1.50679 4.37836 1.50795 4.37477 1.5085 4.37305C1.50879 4.37218 1.50906 4.37133 1.50915 4.37106C1.50929 4.37063 1.50927 4.37069 1.50921 4.37086C1.50912 4.37115 1.50847 4.37316 1.50754 4.37596C1.50659 4.37878 1.50503 4.38343 1.50296 4.38924C1.50092 4.395 1.49796 4.40312 1.49416 4.41285C1.49041 4.42244 1.48508 4.43552 1.47816 4.4509L-0.0974771 3.74142ZM-0.105506 3.76326C-0.205605 3.98843 -0.228226 4.22309 -0.196239 4.43899L1.5131 4.18575C1.52504 4.26634 1.51756 4.36609 1.47351 4.46519L-0.105506 3.76326ZM-0.205568 4.31237V4.38444H1.52243V4.31237H-0.205568ZM-0.192769 4.23627C-0.216994 4.37544 -0.216994 4.51951 -0.192769 4.65868L1.50963 4.36235C1.51954 4.41926 1.51954 4.47569 1.50963 4.53261L-0.192769 4.23627ZM-0.205568 4.51052V6.2823H1.52243V4.51052H-0.205568ZM0.658432 5.4183H0.409091V7.1463H0.658432V5.4183ZM0.409091 5.4183C0.307015 5.4183 0.135096 5.42631 -0.0570317 5.5009L0.568395 7.11175C0.475268 7.14791 0.403985 7.1463 0.409091 7.1463V5.4183ZM-0.0570317 5.5009C-0.207786 5.55944 -0.349803 5.64779 -0.470125 5.76084L0.713125 7.02017C0.668485 7.06211 0.620149 7.09166 0.568395 7.11175L-0.0570317 5.5009ZM-0.470125 5.76084C-0.590549 5.87399 -0.690582 6.01322 -0.758984 6.16875L0.822802 6.86441C0.795309 6.92692 0.757867 6.97813 0.713125 7.02017L-0.470125 5.76084ZM-0.758984 6.16875C-0.826243 6.32169 -0.864 6.49312 -0.864 6.66668H0.864C0.864 6.73953 0.849152 6.80449 0.822802 6.86441L-0.758984 6.16875ZM-0.864 6.66668V8.03007H0.864V6.66668H-0.864ZM-0.864 8.03007C-0.864 8.20362 -0.826243 8.37506 -0.758984 8.52799L0.822802 7.83234C0.849153 7.89225 0.864 7.95722 0.864 8.03007H-0.864ZM-0.757699 8.5309C-0.690379 8.68246 -0.592042 8.82135 -0.470125 8.93591L0.713125 7.67658C0.759361 7.72002 0.795515 7.77089 0.821517 7.82943L-0.757699 8.5309ZM-0.471817 8.93431C-0.349361 9.04999 -0.206169 9.13794 -0.0570317 9.19584L0.568395 7.585C0.618532 7.60446 0.668043 7.63399 0.714817 7.67817L-0.471817 8.93431ZM-0.0570317 9.19584C0.135092 9.27044 0.307008 9.27844 0.409091 9.27844V7.55044C0.403992 7.55044 0.475272 7.54884 0.568395 7.585L-0.0570317 9.19584ZM0.409091 9.27844H2.1285V7.55044H0.409091V9.27844ZM1.28364 8.59528C1.5669 9.91867 2.79084 10.864 4.18684 10.864V9.136C3.55416 9.136 3.07547 8.71064 2.97336 8.23361L1.28364 8.59528ZM4.18684 10.864C5.58255 10.864 6.80714 9.91832 7.0899 8.59499L5.40005 8.2339C5.29827 8.71022 4.8194 9.136 4.18684 9.136V10.864ZM6.24498 9.27844H11.4226V7.55044H6.24498V9.27844ZM10.5778 8.59528C10.8617 9.92166 12.0945 10.864 13.4873 10.864V9.136C12.8514 9.136 12.369 8.70765 12.2675 8.23361L10.5778 8.59528ZM13.4873 10.864C14.8812 10.864 16.1073 9.91907 16.3904 8.5951L14.7006 8.23379C14.5987 8.71024 14.1188 9.136 13.4873 9.136V10.864ZM15.5455 9.27844H17.5909V7.55044H15.5455V9.27844ZM17.5909 9.27844C17.6802 9.27844 17.865 9.27317 18.0645 9.19541L17.4368 7.58544C17.4925 7.56373 17.5365 7.55611 17.5584 7.55319C17.5808 7.55021 17.5936 7.55044 17.5909 7.55044V9.27844ZM18.0634 9.19584C18.2465 9.12475 18.3795 9.02154 18.4718 8.93431L17.2852 7.67817C17.3018 7.66244 17.3538 7.61766 17.4379 7.585L18.0634 9.19584ZM18.4701 8.93591C18.5906 8.82275 18.6906 8.68352 18.759 8.52799L17.1772 7.83234C17.2047 7.76983 17.2421 7.71862 17.2869 7.67658L18.4701 8.93591ZM18.759 8.52799C18.8262 8.37507 18.864 8.20363 18.864 8.03007H17.136C17.136 7.95721 17.1509 7.89225 17.1772 7.83234L18.759 8.52799ZM18.864 8.03007V6.66668H17.136V8.03007H18.864ZM18.864 6.66668C18.864 6.49353 18.8263 6.32189 18.759 6.16875L17.1772 6.86441C17.1627 6.83147 17.153 6.80003 17.1467 6.77031C17.1404 6.74067 17.136 6.70618 17.136 6.66668H18.864ZM18.759 6.16875C18.6906 6.01323 18.5906 5.874 18.4701 5.76084L17.2869 7.02017C17.2421 6.97812 17.2047 6.92692 17.1772 6.86441L18.759 6.16875ZM18.4701 5.76084C18.3786 5.67487 18.247 5.57291 18.0661 5.50196L17.4352 7.11069C17.3533 7.07856 17.3027 7.03504 17.2869 7.02017L18.4701 5.76084ZM18.0645 5.50134C17.865 5.42357 17.6802 5.4183 17.5909 5.4183V7.1463C17.5936 7.1463 17.5808 7.14654 17.5584 7.14356C17.5365 7.14064 17.4925 7.13301 17.4368 7.11131L18.0645 5.50134ZM17.5909 5.4183H17.1436V7.1463H17.5909V5.4183ZM18.0076 6.2823V0.390568H16.2796V6.2823H18.0076ZM18.0076 0.390568C18.0076 0.216957 17.9698 0.0444244 17.9011 -0.110266L16.3218 0.591205C16.2945 0.529533 16.2796 0.463473 16.2796 0.390568H18.0076ZM17.9023 -0.107359C17.8198 -0.295135 17.7032 -0.425237 17.6137 -0.509312L16.4304 0.750015C16.4166 0.737049 16.3622 0.683054 16.3206 0.588297L17.9023 -0.107359ZM17.6137 -0.509312C17.4926 -0.623044 17.3505 -0.710808 17.2017 -0.768812L16.574 0.841157C16.5239 0.821591 16.4758 0.792637 16.4304 0.750015L17.6137 -0.509312ZM17.2006 -0.76925C17.0649 -0.821919 16.9085 -0.857809 16.7345 -0.857809V0.870191C16.6673 0.870191 16.6118 0.855827 16.5752 0.841596L17.2006 -0.76925ZM16.7345 -0.857809H5.36932V0.870191H16.7345V-0.857809ZM5.4814 -0.850508C5.48508 -0.850027 5.48734 -0.849676 5.48237 -0.850406C5.47955 -0.85082 5.46979 -0.852269 5.45943 -0.853667C5.44088 -0.856172 5.39479 -0.862205 5.33847 -0.863528L5.29789 0.863995C5.27612 0.863484 5.25896 0.862101 5.24849 0.861099C5.23791 0.860086 5.23042 0.859091 5.22822 0.858795C5.22658 0.858573 5.22553 0.85841 5.23126 0.859251C5.23483 0.859776 5.24548 0.861352 5.25724 0.862891L5.4814 -0.850508ZM5.90978 -0.629456L5.90957 -0.629648L4.72638 0.62973L4.72658 0.629922L5.90978 -0.629456Z" fill="black" mask="url(#path-1-inside-1)"/>
</svg>
