<svg width="25" height="13" viewBox="0 0 25 13" fill="none" xmlns="http://www.w3.org/2000/svg">
<g id="Group">
<path id="Fill 210" fill-rule="evenodd" clip-rule="evenodd" d="M23.8742 10.9892H22.3176C22.3681 10.7234 22.3955 10.4366 22.3955 10.1267C22.3955 8.82336 21.7195 7.72581 20.2903 7.72581C19.0666 7.72581 18.1937 8.64335 18.1937 9.73223C18.1937 10.2619 18.3857 10.6898 18.6918 10.9892H17.0037V1.08957H23.8742V10.9892ZM19.4944 9.65501C19.4858 9.07201 19.8111 8.67759 20.2561 8.67759C20.8465 8.67759 21.0691 9.26059 21.0691 9.85227C21.0691 10.0151 21.0435 10.1009 21.0007 10.178C20.8809 10.3752 20.6326 10.5467 20.2818 10.5467C19.7511 10.5467 19.4944 10.1351 19.4944 9.65501ZM1.08754 10.9892H7.95805V1.08957H1.08754V10.9892ZM9.04559 10.9892H15.9162V1.08957H9.04559V10.9892ZM0 12.0788H24.9619V0H0V12.0788Z" fill="black"/>
<path id="Fill 211" fill-rule="evenodd" clip-rule="evenodd" d="M3.89694 7.57405C3.37786 7.57405 3.06123 6.93309 3.07003 5.58802C3.06123 4.22489 3.39555 3.58384 3.88796 3.58384C4.42466 3.58384 4.69736 4.26997 4.69736 5.56995C4.69736 6.90599 4.41585 7.57405 3.89694 7.57405ZM3.90575 2.54565C2.4278 2.54565 1.72412 3.89081 1.72412 5.58802C1.73292 7.2491 2.38396 8.61232 3.86173 8.61232C5.3219 8.61232 6.03447 7.36645 6.03447 5.55189C6.03447 3.94492 5.43624 2.54565 3.90575 2.54565Z" fill="black"/>
<path id="Fill 212" fill-rule="evenodd" clip-rule="evenodd" d="M12.5086 3.58384C13.0453 3.58384 13.318 4.26997 13.318 5.56995C13.318 6.90599 13.0365 7.57405 12.5175 7.57405C11.9984 7.57405 11.6818 6.93309 11.6905 5.58802C11.6818 4.22489 12.0161 3.58384 12.5086 3.58384ZM12.4822 8.61232C13.9425 8.61232 14.6551 7.36645 14.6551 5.55189C14.6551 3.94502 14.0568 2.54565 12.5263 2.54565C11.0485 2.54565 10.3447 3.89081 10.3447 5.58802C10.3535 7.2491 11.0045 8.61232 12.4822 8.61232Z" fill="black"/>
<path id="Fill 213" fill-rule="evenodd" clip-rule="evenodd" d="M20.1578 3.40787C20.6844 3.5501 21.053 3.85227 21.053 4.35894C21.053 4.76794 20.7458 5.07901 20.2719 5.07901C19.7715 5.07901 19.4555 4.68789 19.4642 4.27008C19.4642 3.85227 19.7188 3.53231 20.1578 3.40787ZM18.1035 4.40342C18.1035 5.18566 18.7707 6.01229 20.2192 6.01229C21.5447 6.01229 22.4139 5.3101 22.4139 4.26118C22.4139 3.51452 21.9222 3.03454 21.3691 2.82114V2.79446C21.8722 2.53982 22.1353 2.12111 22.185 1.67896H20.9383C20.9316 2.03683 20.6631 2.31555 20.3596 2.40342C19.9261 2.26838 19.5883 2.03683 19.5553 1.67896H18.297C18.3018 2.1805 18.5736 2.64593 19.1218 2.92788V2.95448C18.4986 3.23014 18.1035 3.71013 18.1035 4.40342Z" fill="black"/>
</g>
</svg>
