<svg width="12" height="12" viewBox="0 0 12 12" fill="none" xmlns="http://www.w3.org/2000/svg">
<path fill-rule="evenodd" clip-rule="evenodd" d="M4.5 7.5H7.5V4.5H4.5V7.5ZM3 9H9V3H3V9ZM11.25 5.25C11.6643 5.25 12 4.91425 12 4.5C12 4.08575 11.6643 3.75 11.25 3.75H10.5V2.625C10.5 2.00362 9.99638 1.5 9.375 1.5H8.25V0.75C8.25 0.33575 7.91425 0 7.5 0C7.08575 0 6.75 0.33575 6.75 0.75V1.5H5.25V0.75C5.25 0.33575 4.91425 0 4.5 0C4.08575 0 3.75 0.33575 3.75 0.75V1.5H2.625C2.00362 1.5 1.5 2.00362 1.5 2.625V3.75H0.75C0.33575 3.75 0 4.08575 0 4.5C0 4.91425 0.33575 5.25 0.75 5.25H1.5V6.75H0.75C0.33575 6.75 0 7.08575 0 7.5C0 7.91425 0.33575 8.25 0.75 8.25H1.5V9.375C1.5 9.99638 2.00362 10.5 2.625 10.5H3.75V11.25C3.75 11.6643 4.08575 12 4.5 12C4.91425 12 5.25 11.6643 5.25 11.25V10.5H6.75V11.25C6.75 11.6643 7.08575 12 7.5 12C7.91425 12 8.25 11.6643 8.25 11.25V10.5H9.375C9.99638 10.5 10.5 9.99638 10.5 9.375V8.25H11.25C11.6643 8.25 12 7.91425 12 7.5C12 7.08575 11.6643 6.75 11.25 6.75H10.5V5.25H11.25Z" fill="white"/>
</svg>
