<svg width="8" height="12" viewBox="0 0 8 12" fill="none" xmlns="http://www.w3.org/2000/svg">
<path fill-rule="evenodd" clip-rule="evenodd" d="M5.19377 6.11517C5.14441 6.16648 5.0954 6.20905 5.04604 6.24326L4.8983 6.39646H7.7784C7.74514 6.6359 7.70453 6.99397 7.65517 7.47139H3.69228C3.56065 7.60821 3.44618 7.71046 3.3478 7.77815C3.24908 7.86403 3.18327 7.92334 3.15071 7.95718C3.00298 8.19662 2.91266 8.44334 2.8801 8.69952C2.84684 8.93859 2.8962 9.18567 3.02783 9.44149C3.14231 9.62926 3.29004 9.77409 3.47068 9.87634C3.65097 9.97859 3.84807 10.047 4.06161 10.0808C4.60319 10.2006 5.12795 10.2089 5.63697 10.1067C6.16174 9.98769 6.67075 9.83413 7.16296 9.646C7.24488 9.61215 7.3268 9.57831 7.40907 9.54374C7.49099 9.5099 7.58131 9.47569 7.68003 9.44149C7.64677 9.78282 7.62227 10.1067 7.60616 10.4138C7.5729 10.738 7.54035 11.0623 7.50744 11.3858C7.50744 11.4371 7.46648 11.48 7.38456 11.5138C7.31875 11.5652 7.25293 11.5994 7.18747 11.6161C6.85909 11.6845 6.52302 11.7442 6.17854 11.7951C5.84982 11.8635 5.51374 11.9148 5.16926 11.9487C4.90635 11.9833 4.63574 12 4.35673 12C4.17609 12 3.98775 11.9916 3.79065 11.9745C3.3478 11.9403 2.9046 11.8464 2.4614 11.6929C1.95274 11.5055 1.51759 11.2326 1.15701 10.8741C0.795729 10.5332 0.557675 10.0725 0.4432 9.49243C0.393839 9.21988 0.377385 8.95533 0.393839 8.69952C0.409942 8.42696 0.467705 8.15368 0.566077 7.88077C0.598985 7.82946 0.62349 7.76978 0.639944 7.70137C0.672501 7.63368 0.705409 7.56527 0.738316 7.49686H0C0.0325573 7.25815 0.0819184 6.90008 0.147733 6.42229H1.59986C1.73114 6.28584 1.87082 6.16648 2.01855 6.06386C2.14948 5.97871 2.28076 5.87646 2.41239 5.7571H0.2216C0.237703 5.51839 0.278663 5.15996 0.344478 4.68217H3.64292C3.85612 4.49477 4.02836 4.34121 4.15999 4.22185C4.29092 4.10286 4.38159 4.00861 4.4306 3.9402C4.69281 3.56539 4.76667 3.18986 4.6522 2.81469C4.53737 2.43952 4.27446 2.1666 3.86452 1.99594C3.52004 1.85948 3.18327 1.79107 2.85524 1.79107C2.51077 1.79107 2.15754 1.83401 1.79695 1.91916C1.59986 1.9701 1.39436 2.02141 1.18152 2.07272C0.984772 2.12366 0.771224 2.1837 0.541572 2.25175C0.574129 1.94463 0.606687 1.6375 0.639944 1.33075C0.672501 1.02362 0.697357 0.733602 0.713811 0.460685C0.729914 0.409376 0.75442 0.367165 0.787677 0.332595C0.837038 0.281651 0.877647 0.255815 0.910905 0.255815C1.68178 0.11972 2.453 0.0345696 3.22458 0H3.47068C4.15999 0 4.84054 0.136823 5.51374 0.409376C6.30142 0.716499 6.83459 1.25396 7.1136 2.02141C7.37581 2.80632 7.29424 3.57376 6.8675 4.3241C6.8675 4.34121 6.84299 4.38415 6.79363 4.45219C6.72781 4.50314 6.65395 4.57992 6.57238 4.68217H8C7.96674 4.92161 7.92613 5.27968 7.87677 5.7571H5.5631C5.51374 5.82551 5.45598 5.89393 5.39051 5.96161C5.32505 6.01292 5.25923 6.06386 5.19377 6.11517Z" fill="#231F20"/>
</svg>
