<svg width="12" height="12" viewBox="0 0 12 12" fill="none" xmlns="http://www.w3.org/2000/svg">
<path id="delete - anticon" fill-rule="evenodd" clip-rule="evenodd" d="M1.52624 11.851C1.52974 11.8517 1.53325 11.852 1.53675 11.852C1.53408 11.852 1.53101 11.8516 1.52753 11.8508L1.52624 11.851ZM1.42984 11.7982C1.40312 11.7803 1.38085 11.7668 1.36303 11.7578C1.38085 11.7668 1.40312 11.7803 1.42984 11.7982ZM12 2.19955C12 2.3296 11.951 2.4417 11.853 2.53587C11.755 2.63005 11.6392 2.67713 11.5056 2.67713H11.2383V11.0583C11.2383 11.3184 11.1448 11.5404 10.9577 11.7242C10.7706 11.9081 10.5479 12 10.2895 12H1.8441C1.58574 12 1.36303 11.9081 1.17595 11.7242C0.988863 11.5404 0.895323 11.3184 0.895323 11.0583V2.67713H0.481069C0.347438 2.67713 0.233853 2.63005 0.140312 2.53587C0.0467701 2.4417 0 2.3296 0 2.19955C0 2.06951 0.0467701 1.9574 0.140312 1.86323C0.233853 1.76906 0.347438 1.72197 0.481069 1.72197H2.95323V0.941704C2.95323 0.681613 3.04454 0.459642 3.22717 0.275785C3.4098 0.0919273 3.63474 0 3.902 0H8.098C8.35635 0 8.57906 0.0919273 8.76615 0.275785C8.95323 0.459642 9.04677 0.681613 9.04677 0.941704V1.72197H11.5056C11.6481 1.72197 11.7661 1.76906 11.8597 1.86323C11.9532 1.9574 12 2.06951 12 2.19955ZM3.88864 0.955157V1.72197H8.098V0.955157H3.88864ZM6.32739 4.43273C6.42094 4.52691 6.46771 4.64125 6.46771 4.77578V9.26906C6.46771 9.40359 6.42094 9.51794 6.32739 9.61211C6.23385 9.70628 6.1225 9.75336 5.99332 9.75336C5.86414 9.75336 5.75278 9.70628 5.65924 9.61211C5.5657 9.51794 5.51893 9.40359 5.51893 9.26906V4.77578C5.51893 4.64125 5.5657 4.52691 5.65924 4.43273C5.75278 4.33856 5.86414 4.29148 5.99332 4.29148C6.1225 4.29148 6.23385 4.33856 6.32739 4.43273ZM3.73497 4.43273C3.82851 4.52691 3.87528 4.64125 3.87528 4.77578V9.26906C3.87528 9.40359 3.82851 9.51794 3.73497 9.61211C3.64142 9.70628 3.52784 9.75336 3.39421 9.75336C3.26058 9.75336 3.14699 9.70628 3.05345 9.61211C2.95991 9.51794 2.91314 9.40359 2.91314 9.26906V4.77578C2.91314 4.64125 2.95991 4.52691 3.05345 4.43273C3.14699 4.33856 3.26058 4.29148 3.39421 4.29148C3.52784 4.29148 3.64142 4.33856 3.73497 4.43273ZM8.90646 4.43273C9 4.52691 9.04677 4.64125 9.04677 4.77578V9.26906C9.04677 9.40359 9 9.51794 8.90646 9.61211C8.81292 9.70628 8.69933 9.75336 8.5657 9.75336C8.43207 9.75336 8.31849 9.70628 8.22495 9.61211C8.1314 9.51794 8.08463 9.40359 8.08463 9.26906V4.77578C8.08463 4.64125 8.1314 4.52691 8.22495 4.43273C8.31849 4.33856 8.43207 4.29148 8.5657 4.29148C8.69933 4.29148 8.81292 4.33856 8.90646 4.43273Z" fill="#057DB0"/>
</svg>
