<svg width="14" height="14" viewBox="0 0 14 14" fill="none" xmlns="http://www.w3.org/2000/svg">
<path fill-rule="evenodd" clip-rule="evenodd" d="M7 14C10.866 14 14 10.866 14 7C14 3.13401 10.866 0 7 0C3.13401 0 0 3.13401 0 7C0 10.866 3.13401 14 7 14Z" fill="#35B577"/>
<path fill-rule="evenodd" clip-rule="evenodd" d="M6.82801 7.77992C7.68806 7.77992 8.45115 7.57098 8.98927 7.24146H4.66675C5.20486 7.57098 5.96795 7.77992 6.82801 7.77992Z" fill="#05380F"/>
<path fill-rule="evenodd" clip-rule="evenodd" d="M3.2666 6.97079H10.0218V6.27588H3.2666V6.97079Z" fill="#05350E"/>
<path fill-rule="evenodd" clip-rule="evenodd" d="M10.7966 6.55346H10.1744V6.07852H9.41919V8.24717C8.7059 8.32549 8.16045 8.83458 8.07653 9.53947H5.55905C5.43318 8.83458 4.88772 8.32549 4.21639 8.24717V7.48459V6.55346V6.07852H3.41919V6.55346H2.79704V4.83254H10.7966V6.55346ZM11.0555 3.86206H2.3702C2.09327 3.86206 1.8667 4.07353 1.8667 4.33199V7.01451C1.8667 7.27297 2.09327 7.48444 2.3702 7.48444H3.41915V9.97009C3.41915 10.1659 3.58698 10.3225 3.79677 10.3225H9.83873C10.0066 10.3225 10.1744 10.1659 10.1744 9.97009V7.48444H11.0555C11.3324 7.48444 11.559 7.27297 11.559 7.01451V4.33199C11.559 4.07353 11.3324 3.86206 11.0555 3.86206Z" fill="#061F0A"/>
</svg>
