<svg width="16" height="15" viewBox="0 0 16 15" fill="none" xmlns="http://www.w3.org/2000/svg">
<g id="Group">
<path id="Fill 1" fill-rule="evenodd" clip-rule="evenodd" d="M1.71602 1.62704C1.46365 1.5762 1.26176 1.72874 1.21129 1.93213L0.908447 2.94908H6.71286L1.71602 1.62704Z" fill="black"/>
<g id="Group 5">
<mask id="mask0" mask-type="alpha" maskUnits="userSpaceOnUse" x="2" y="0" width="7" height="3">
<path id="Clip 4" fill-rule="evenodd" clip-rule="evenodd" d="M2.37231 0.0507812H8.12626V2.79652H2.37231V0.0507812Z" fill="white"/>
</mask>
<g mask="url(#mask0)">
<path id="Fill 3" fill-rule="evenodd" clip-rule="evenodd" d="M3.5332 0.101629C3.38178 -6.62059e-05 3.12941 0.0507812 2.97799 0.254171L2.37231 1.32197L8.12626 2.79654L3.5332 0.101629Z" fill="black"/>
</g>
</g>
<path id="Fill 6" fill-rule="evenodd" clip-rule="evenodd" d="M1.21135 13.1186C1.3123 13.3728 1.51419 13.4745 1.71608 13.4237L6.7634 12.0508H0.958984L1.21135 13.1186Z" fill="black"/>
<path id="Fill 8" fill-rule="evenodd" clip-rule="evenodd" d="M14.7886 1.88135C14.7381 1.67796 14.4858 1.52541 14.2839 1.57626L9.23657 2.94914H15.0915L14.7886 1.88135Z" fill="black"/>
<path id="Fill 10" fill-rule="evenodd" clip-rule="evenodd" d="M14.3344 13.3728C14.5363 13.4237 14.7887 13.322 14.8392 13.0677L15.0915 12.0508H9.28711L14.3344 13.3728Z" fill="black"/>
<g id="Fill 12">
<mask id="path-7-inside-1" fill="white">
<path fill-rule="evenodd" clip-rule="evenodd" d="M14.9905 9.05081C14.1325 9.1525 13.4259 9.81352 13.3754 10.6779H10.0946C10.7508 10.0678 11.205 8.89826 11.205 7.52538C11.205 6.1525 10.7508 4.98301 10.0946 4.37284H13.3754C13.4259 5.1864 14.1325 5.84742 14.9905 5.99996V9.05081ZM5.90536 10.6779H2.67508C2.57413 9.81352 1.91798 9.1525 1.00946 9.05081V5.99996C1.91798 5.84742 2.57413 5.1864 2.67508 4.37284H5.90536C5.24921 4.98301 4.79495 6.1525 4.79495 7.52538C4.79495 8.89826 5.24921 10.0678 5.90536 10.6779ZM15.5962 3.40674H0.454259C0.201893 3.40674 0 3.61013 0 3.86437V11.1864C0 11.3898 0.201893 11.5932 0.454259 11.5932H15.5962C15.7981 11.5932 16 11.3898 16 11.1864V3.86437C16 3.61013 15.7981 3.40674 15.5962 3.40674Z"/>
</mask>
<path d="M14.9905 9.05081L15.1176 10.1233L16.0705 10.0104V9.05081H14.9905ZM13.3754 10.6779V11.7579H14.3942L14.4536 10.7409L13.3754 10.6779ZM10.0946 10.6779L9.35918 9.88704L7.3473 11.7579H10.0946V10.6779ZM10.0946 4.37284V3.29284H7.3473L9.35918 5.16372L10.0946 4.37284ZM13.3754 4.37284L14.4533 4.30597L14.3905 3.29284H13.3754V4.37284ZM14.9905 5.99996H16.0705V5.09503L15.1796 4.93663L14.9905 5.99996ZM2.67508 10.6779L1.60237 10.8032L1.71386 11.7579H2.67508V10.6779ZM1.00946 9.05081H-0.0705364V10.0167L0.889324 10.1241L1.00946 9.05081ZM1.00946 5.99996L0.830632 4.93487L-0.0705364 5.08618V5.99996H1.00946ZM2.67508 4.37284V3.29284H1.7208L1.6033 4.23985L2.67508 4.37284ZM5.90536 4.37284L6.64082 5.16372L8.6527 3.29284H5.90536V4.37284ZM14.8634 7.97831C13.5564 8.13322 12.3822 9.16001 12.2972 10.615L14.4536 10.7409C14.4695 10.467 14.7086 10.1718 15.1176 10.1233L14.8634 7.97831ZM13.3754 9.59792H10.0946V11.7579H13.3754V9.59792ZM10.8301 11.4688C11.7736 10.5914 12.285 9.09136 12.285 7.52538H10.125C10.125 8.70517 9.72793 9.54412 9.35918 9.88704L10.8301 11.4688ZM12.285 7.52538C12.285 5.9594 11.7736 4.45938 10.8301 3.58196L9.35918 5.16372C9.72793 5.50664 10.125 6.3456 10.125 7.52538H12.285ZM10.0946 5.45284H13.3754V3.29284H10.0946V5.45284ZM12.2975 4.43971C12.3858 5.86341 13.5733 6.84494 14.8015 7.06329L15.1796 4.93663C14.6917 4.84989 14.4659 4.50939 14.4533 4.30597L12.2975 4.43971ZM13.9105 5.99996V9.05081H16.0705V5.99996H13.9105ZM5.90536 9.59792H2.67508V11.7579H5.90536V9.59792ZM3.74779 10.5527C3.58751 9.18017 2.52854 8.1341 1.1296 7.97751L0.889324 10.1241C1.30742 10.1709 1.56076 10.4469 1.60237 10.8032L3.74779 10.5527ZM2.08946 9.05081V5.99996H-0.0705364V9.05081H2.08946ZM1.1883 7.06505C2.51593 6.84214 3.58087 5.84359 3.74686 4.50583L1.6033 4.23985C1.56739 4.52921 1.32003 4.8527 0.830632 4.93487L1.1883 7.06505ZM2.67508 5.45284H5.90536V3.29284H2.67508V5.45284ZM5.1699 3.58196C4.22636 4.45938 3.71495 5.9594 3.71495 7.52538H5.87495C5.87495 6.3456 6.27206 5.50664 6.64082 5.16372L5.1699 3.58196ZM3.71495 7.52538C3.71495 9.09136 4.22636 10.5914 5.1699 11.4688L6.64082 9.88704C6.27206 9.54412 5.87495 8.70517 5.87495 7.52538H3.71495ZM15.5962 2.32674H0.454259V4.48674H15.5962V2.32674ZM0.454259 2.32674C-0.402083 2.32674 -1.08 3.0212 -1.08 3.86437H1.08C1.08 4.19906 0.805869 4.48674 0.454259 4.48674V2.32674ZM-1.08 3.86437V11.1864H1.08V3.86437H-1.08ZM-1.08 11.1864C-1.08 12.0588 -0.319334 12.6732 0.454259 12.6732V10.5132C0.621514 10.5132 0.765731 10.5801 0.867952 10.6752C0.961933 10.7626 1.08 10.9331 1.08 11.1864H-1.08ZM0.454259 12.6732H15.5962V10.5132H0.454259V12.6732ZM15.5962 12.6732C16.0512 12.6732 16.4138 12.4551 16.6403 12.2269C16.8673 11.9983 17.08 11.6365 17.08 11.1864H14.92C14.92 10.9397 15.0318 10.7813 15.1073 10.7052C15.1824 10.6296 15.3431 10.5132 15.5962 10.5132V12.6732ZM17.08 11.1864V3.86437H14.92V11.1864H17.08ZM17.08 3.86437C17.08 3.10448 16.4815 2.32674 15.5962 2.32674V4.48674C15.3363 4.48674 15.1636 4.36374 15.0775 4.26983C14.9835 4.16724 14.92 4.02572 14.92 3.86437H17.08Z" fill="black" mask="url(#path-7-inside-1)"/>
</g>
<path id="Fill 14" fill-rule="evenodd" clip-rule="evenodd" d="M12.4669 14.8983C12.6688 15.0508 12.9212 14.9491 13.0221 14.7457L13.6278 13.7288L7.92432 12.2034L12.4669 14.8983Z" fill="black"/>
</g>
</svg>
