<svg width="13" height="11" viewBox="0 0 13 11" fill="none" xmlns="http://www.w3.org/2000/svg">
<path d="M9.99457 10.8263C9.53721 10.8432 8.9806 10.749 8.36466 10.5422C7.01434 10.0893 5.5287 9.15043 4.18147 7.89919C2.83385 6.64759 1.78795 5.2349 1.23629 3.92169C0.73494 2.72768 0.697117 1.73388 1.13546 1.2623C1.19848 1.19444 1.26244 1.12173 1.32853 1.04673C1.72761 0.594733 2.17865 0.0860275 2.80136 0.0852383C3.23053 0.0871556 3.65558 0.338025 4.10031 0.851404C5.41438 2.36748 4.86852 2.94522 4.23683 3.61499L4.12534 3.73388C4.02208 3.84506 3.83781 4.3491 5.79233 6.16436C6.43029 6.75687 6.97158 7.18782 7.40092 7.44483C7.67125 7.60663 8.15298 7.84874 8.33957 7.64785L8.45169 7.52597C9.07234 6.84809 9.6083 6.26294 11.216 7.4605C11.7608 7.86615 12.042 8.27117 12.0756 8.69977C12.1241 9.32035 11.6464 9.80894 11.2247 10.2399C11.1551 10.3114 11.0873 10.3805 11.0243 10.448C10.8067 10.6826 10.4497 10.8095 9.99457 10.8263ZM2.77062 0.45587C2.32879 0.472191 1.94537 0.906944 1.606 1.29157C1.53777 1.36888 1.47168 1.44388 1.40651 1.51404C1.07998 1.86524 1.14724 2.75392 1.57755 3.77876C2.10932 5.04457 3.12355 6.41179 4.4336 7.62849C5.74324 8.84447 7.18082 9.75509 8.48278 10.1916C9.5366 10.5459 10.4278 10.5463 10.7536 10.1955C10.8187 10.1253 10.8887 10.0539 10.9607 9.98051C11.3271 9.60562 11.7428 9.18079 11.7071 8.72782C11.6827 8.41662 11.4433 8.08966 10.9956 7.75632C9.65584 6.75804 9.30567 7.14085 8.72487 7.77504L8.61097 7.89884C8.33324 8.19825 7.86243 8.15159 7.21122 7.76172C6.75953 7.49111 6.19731 7.04464 5.54093 6.43467C3.91882 4.92849 3.38321 3.98973 3.85461 3.48101L3.96826 3.36019C4.55935 2.73413 4.916 2.35627 3.8212 1.09311C3.45501 0.671612 3.11165 0.456971 2.79947 0.455174C2.78985 0.45516 2.78023 0.455515 2.77062 0.45587Z" fill="black"/>
</svg>
