<svg width="13" height="13" viewBox="0 0 13 13" fill="none" xmlns="http://www.w3.org/2000/svg">
<path fill-rule="evenodd" clip-rule="evenodd" d="M6.5 13C10.0899 13 13 10.0899 13 6.5C13 2.91015 10.0899 0 6.5 0C2.91015 0 0 2.91015 0 6.5C0 10.0899 2.91015 13 6.5 13Z" fill="#FF5F46"/>
<path fill-rule="evenodd" clip-rule="evenodd" d="M6.59746 5.55811C7.39608 5.55811 8.10467 5.36409 8.60434 5.05811H4.59058C5.09025 5.36409 5.79884 5.55811 6.59746 5.55811Z" fill="#161716"/>
<path fill-rule="evenodd" clip-rule="evenodd" d="M3.44165 5.04859H9.71438V4.40332H3.44165V5.04859Z" fill="#161716"/>
<path fill-rule="evenodd" clip-rule="evenodd" d="M10.292 5.49902H9.71429V5.058H9.01299V7.07175C8.35065 7.14447 7.84416 7.6172 7.76623 8.27175H5.42857C5.31169 7.6172 4.80519 7.14447 4.18182 7.07175V6.36364V5.49902V5.058H3.44156V5.49902H2.86384V3.90102H10.292V5.49902ZM10.5325 3H2.46753C2.21039 3 2 3.19636 2 3.43636V5.92727C2 6.16727 2.21039 6.36364 2.46753 6.36364H3.44156V8.67175C3.44156 8.85356 3.5974 8.99902 3.79221 8.99902H9.4026C9.55844 8.99902 9.71429 8.85356 9.71429 8.67175V6.36364H10.5325C10.7896 6.36364 11 6.16727 11 5.92727V3.43636C11 3.19636 10.7896 3 10.5325 3Z" fill="#161716"/>
</svg>
