<svg width="25" height="13" viewBox="0 0 25 13" fill="none" xmlns="http://www.w3.org/2000/svg">
<mask id="mask0" mask-type="alpha" maskUnits="userSpaceOnUse" x="0" y="0" width="25" height="13">
<path fill-rule="evenodd" clip-rule="evenodd" d="M0 0.0544434H24.9618V12.1332H0V0.0544434Z" fill="white"/>
</mask>
<g mask="url(#mask0)">
<path fill-rule="evenodd" clip-rule="evenodd" d="M23.8742 11.0437H22.3176C22.3681 10.7779 22.3955 10.491 22.3955 10.1811C22.3955 8.8778 21.7195 7.78026 20.2903 7.78026C19.0666 7.78026 18.1937 8.6978 18.1937 9.78668C18.1937 10.3164 18.3857 10.7443 18.6918 11.0437H17.0037V1.14402H23.8742V11.0437ZM19.4944 9.70946C19.4858 9.12645 19.8111 8.73203 20.2561 8.73203C20.8465 8.73203 21.0691 9.31504 21.0691 9.90671C21.0691 10.0696 21.0435 10.1554 21.0007 10.2325C20.8809 10.4297 20.6326 10.6012 20.2818 10.6012C19.7511 10.6012 19.4944 10.1896 19.4944 9.70946ZM1.08754 11.0437H7.95805V1.14402H1.08754V11.0437ZM9.04559 11.0437H15.9162V1.14402H9.04559V11.0437ZM0 12.1333H24.9619V0.0544434H0V12.1333Z" fill="black"/>
</g>
<path fill-rule="evenodd" clip-rule="evenodd" d="M3.89694 7.62825C3.37786 7.62825 3.06123 6.98729 3.07003 5.64222C3.06123 4.27909 3.39555 3.63804 3.88796 3.63804C4.42466 3.63804 4.69736 4.32417 4.69736 5.62415C4.69736 6.96018 4.41585 7.62825 3.89694 7.62825ZM3.90575 2.59985C2.4278 2.59985 1.72412 3.94501 1.72412 5.64222C1.73292 7.3033 2.38396 8.66652 3.86173 8.66652C5.3219 8.66652 6.03447 7.42065 6.03447 5.60608C6.03447 3.99912 5.43624 2.59985 3.90575 2.59985Z" fill="black"/>
<path fill-rule="evenodd" clip-rule="evenodd" d="M12.5086 3.63804C13.0453 3.63804 13.318 4.32417 13.318 5.62415C13.318 6.96018 13.0365 7.62825 12.5175 7.62825C11.9984 7.62825 11.6818 6.98729 11.6905 5.64222C11.6818 4.27909 12.0161 3.63804 12.5086 3.63804ZM12.4822 8.66652C13.9425 8.66652 14.6551 7.42065 14.6551 5.60608C14.6551 3.99921 14.0568 2.59985 12.5263 2.59985C11.0485 2.59985 10.3447 3.94501 10.3447 5.64222C10.3535 7.3033 11.0045 8.66652 12.4822 8.66652Z" fill="black"/>
<path fill-rule="evenodd" clip-rule="evenodd" d="M20.1578 3.46207C20.6844 3.6043 21.053 3.90647 21.053 4.41314C21.053 4.82214 20.7458 5.13321 20.2719 5.13321C19.7715 5.13321 19.4555 4.74208 19.4642 4.32428C19.4642 3.90647 19.7188 3.58651 20.1578 3.46207ZM18.1035 4.45762C18.1035 5.23986 18.7707 6.06649 20.2192 6.06649C21.5447 6.06649 22.4139 5.3643 22.4139 4.31538C22.4139 3.56872 21.9222 3.08874 21.3691 2.87534V2.84865C21.8722 2.59402 22.1353 2.17531 22.185 1.73315H20.9383C20.9316 2.09103 20.6631 2.36975 20.3596 2.45762C19.9261 2.32258 19.5883 2.09103 19.5553 1.73315H18.297C18.3018 2.2347 18.5736 2.70013 19.1218 2.98208V3.00868C18.4986 3.28434 18.1035 3.76433 18.1035 4.45762Z" fill="black"/>
</svg>
