<svg width="6" height="9" viewBox="0 0 6 9" fill="none" xmlns="http://www.w3.org/2000/svg">
<path fill-rule="evenodd" clip-rule="evenodd" d="M1.5 5.4375V8.8125C1.5 8.91797 1.41797 9 1.3125 9H0.1875C0.0820308 9 0 8.91797 0 8.8125V5.4375C0 5.33203 0.0820308 5.25 0.1875 5.25H1.3125C1.41797 5.25 1.5 5.33203 1.5 5.4375ZM3.75 3.1875V8.8125C3.75 8.91797 3.66797 9 3.5625 9H2.4375C2.33203 9 2.25 8.91797 2.25 8.8125V3.1875C2.25 3.08203 2.33203 3 2.4375 3H3.5625C3.66797 3 3.75 3.08203 3.75 3.1875ZM6 0.1875V8.8125C6 8.91797 5.91797 9 5.8125 9H4.6875C4.58203 9 4.5 8.91797 4.5 8.8125V0.1875C4.5 0.082031 4.58203 0 4.6875 0H5.8125C5.91797 0 6 0.082031 6 0.1875Z" fill="white"/>
</svg>
