<svg width="11" height="7" viewBox="0 0 11 7" fill="none" xmlns="http://www.w3.org/2000/svg">
<g id="Group 4">
<path id="Fill 616" fill-rule="evenodd" clip-rule="evenodd" d="M2.44446 3.08631H8.8889V2.3335H2.44446V3.08631Z" fill="#FDFDFD"/>
<path id="Fill 617" fill-rule="evenodd" clip-rule="evenodd" d="M10.1347 2.91552H9.42857V2.401H8.57143V4.75037C7.7619 4.83522 7.14286 5.38673 7.04762 6.15037H4.19048C4.04762 5.38673 3.42857 4.83522 2.66667 4.75037V3.92424V2.91552V2.401H1.7619V2.91552H1.05581V1.05119H10.1347V2.91552ZM10.4286 0H0.571428C0.257143 0 0 0.22909 0 0.50909V3.41515C0 3.69515 0.257143 3.92424 0.571428 3.92424H1.7619V6.61704C1.7619 6.82916 1.95238 6.99885 2.19048 6.99885H9.04762C9.2381 6.99885 9.42857 6.82916 9.42857 6.61704V3.92424H10.4286C10.7429 3.92424 11 3.69515 11 3.41515V0.50909C11 0.22909 10.7429 0 10.4286 0Z" fill="#FDFDFD"/>
</g>
</svg>
