<svg width="19" height="19" viewBox="0 0 19 19" fill="none" xmlns="http://www.w3.org/2000/svg">
<path id="delete - anticon copy 2" fill-rule="evenodd" clip-rule="evenodd" d="M2.41655 18.764C2.42209 18.7651 2.42764 18.7657 2.43318 18.7657C2.42896 18.7657 2.42409 18.7651 2.41859 18.7638L2.41655 18.764ZM2.26392 18.6805C2.2216 18.6521 2.18634 18.6308 2.15813 18.6166C2.18634 18.6308 2.2216 18.6521 2.26392 18.6805ZM19 3.48262C19 3.68853 18.9224 3.86603 18.7673 4.01513C18.6121 4.16424 18.4287 4.23879 18.2171 4.23879H17.794V17.509C17.794 17.9208 17.6459 18.2722 17.3497 18.5633C17.0535 18.8544 16.7008 19 16.2918 19H2.91982C2.51076 19 2.15813 18.8544 1.86192 18.5633C1.5657 18.2722 1.41759 17.9208 1.41759 17.509V4.23879H0.761693C0.55011 4.23879 0.370268 4.16424 0.22216 4.01513C0.0740527 3.86603 0 3.68853 0 3.48262C0 3.27672 0.0740527 3.09922 0.22216 2.95011C0.370268 2.80101 0.55011 2.72646 0.761693 2.72646H4.67595V1.49103C4.67595 1.07922 4.82053 0.727767 5.10969 0.436659C5.39885 0.145552 5.75501 0 6.17817 0H12.8218C13.2309 0 13.5835 0.145552 13.8797 0.436659C14.1759 0.727767 14.3241 1.07922 14.3241 1.49103V2.72646H18.2171C18.4428 2.72646 18.6297 2.80101 18.7778 2.95011C18.9259 3.09922 19 3.27672 19 3.48262ZM6.15702 1.51233V2.72646H12.8218V1.51233H6.15702ZM10.0184 7.0185C10.1665 7.1676 10.2405 7.34865 10.2405 7.56166V14.676C10.2405 14.889 10.1665 15.0701 10.0184 15.2192C9.87027 15.3683 9.69395 15.4428 9.48942 15.4428C9.28489 15.4428 9.10857 15.3683 8.96047 15.2192C8.81236 15.0701 8.73831 14.889 8.73831 14.676V7.56166C8.73831 7.34865 8.81236 7.1676 8.96047 7.0185C9.10857 6.86939 9.28489 6.79484 9.48942 6.79484C9.69395 6.79484 9.87027 6.86939 10.0184 7.0185ZM5.9137 7.0185C6.0618 7.1676 6.13586 7.34865 6.13586 7.56166V14.676C6.13586 14.889 6.0618 15.0701 5.9137 15.2192C5.76559 15.3683 5.58575 15.4428 5.37416 15.4428C5.16258 15.4428 4.98274 15.3683 4.83463 15.2192C4.68652 15.0701 4.61247 14.889 4.61247 14.676V7.56166C4.61247 7.34865 4.68652 7.1676 4.83463 7.0185C4.98274 6.86939 5.16258 6.79484 5.37416 6.79484C5.58575 6.79484 5.76559 6.86939 5.9137 7.0185ZM14.1019 7.0185C14.25 7.1676 14.3241 7.34865 14.3241 7.56166V14.676C14.3241 14.889 14.25 15.0701 14.1019 15.2192C13.9538 15.3683 13.7739 15.4428 13.5624 15.4428C13.3508 15.4428 13.1709 15.3683 13.0228 15.2192C12.8747 15.0701 12.8007 14.889 12.8007 14.676V7.56166C12.8007 7.34865 12.8747 7.1676 13.0228 7.0185C13.1709 6.86939 13.3508 6.79484 13.5624 6.79484C13.7739 6.79484 13.9538 6.86939 14.1019 7.0185Z" fill="#057DB0"/>
</svg>
